<svg xmlns="http://www.w3.org/2000/svg" xmlns:xlink="http://www.w3.org/1999/xlink" viewBox="0 0 261.35 273.37"><defs><style>.cls-1{isolation:isolate}.cls-2{opacity:.7;mix-blend-mode:hard-light;fill:url(#linear-gradient)}.cls-3{fill:url(#linear-gradient-2)}.cls-4{mix-blend-mode:soft-light;fill:url(#linear-gradient-3)}</style><linearGradient id="linear-gradient" x1="40.37" x2="265.82" y1="137.93" y2="137.93" gradientTransform="translate(-27.49) scale(1.05 1)" gradientUnits="userSpaceOnUse"><stop offset="0" stop-color="#73e57b"/><stop offset=".11" stop-color="#73dc7e"/><stop offset=".29" stop-color="#73c487"/><stop offset=".52" stop-color="#739d96"/><stop offset=".79" stop-color="#7468aa"/><stop offset="1" stop-color="#7437bc"/></linearGradient><linearGradient id="linear-gradient-2" x1="261.24" x2="43.76" y1="-32.27" y2="244.7" gradientUnits="userSpaceOnUse"><stop offset="0" stop-color="#fc17f7"/><stop offset="1" stop-color="#1ad99d"/></linearGradient><linearGradient id="linear-gradient-3" x2="261.35" y1="141.92" y2="141.92" gradientUnits="userSpaceOnUse"><stop offset="0" stop-color="#fac739" stop-opacity=".7"/><stop offset=".13" stop-color="#f3c83d" stop-opacity=".71"/><stop offset=".28" stop-color="#decb4a" stop-opacity=".73"/><stop offset=".45" stop-color="#bccf60" stop-opacity=".77"/><stop offset=".62" stop-color="#8cd67d" stop-opacity=".83"/><stop offset=".81" stop-color="#4edea4" stop-opacity=".91"/><stop offset=".99" stop-color="#04e8d2"/><stop offset="1" stop-color="#00e9d4"/></linearGradient></defs><title>Asset 2</title><g class="cls-1"><g id="Layer_2" data-name="Layer 2"><g id="OBJECTS"><path d="M250.48,174.92a69.74,69.74,0,0,0-.95-11.45l0,0s-8.27-64-60.67-115.45l0,0a77.89,77.89,0,0,0-112.57,0C24.09,99.33,15.72,163.13,15.67,163.5a69.47,69.47,0,0,0-.95,11.42c0,31.7,21.34,58.63,51,68.37,0,0,47.09,17.25,122.73,2.73h0C223.74,239.91,250.48,210.4,250.48,174.92Z" class="cls-2"/><path d="M196.28,2.05A51,51,0,0,0,185.8.3h0S126.31-6.09,63.94,41.1l.05,0C46.46,53.25,31.81,73.92,24.69,99.49s-5.24,50.79,3.47,70.25c29,72.4,83,97.74,83.32,97.89a50.52,50.52,0,0,0,9.85,3.9c28.17,7.83,58.89-9.9,77-41.43,0,0,30.31-49.56,41.45-139.61h0C245.54,48.68,227.82,10.82,196.28,2.05Z" class="cls-3"/><path d="M240.47,243.15a51.07,51.07,0,0,0,5.65-9.37v.05s28.74-54.59,7.26-132.24v0c-5-21.41-19.21-43.3-41-59.83S165.74,17.49,143.8,18.43C63.47,18.64,18.66,60.76,18.4,61A51.73,51.73,0,0,0,10.92,69C-7.29,93-2,129.11,21.32,158.42c0,0,35.94,47.86,117.93,92.76h0C177.09,272.6,220.08,270,240.47,243.15Z" class="cls-4"/></g></g></g></svg>